<?xml version="1.0" encoding="UTF-8"?>
<!DOCTYPE svg PUBLIC "-//W3C//DTD SVG 1.1//EN" "http://www.w3.org/Graphics/SVG/1.1/DTD/svg11.dtd">
<svg xmlns="http://www.w3.org/2000/svg" version="1.1" width="1859px" height="733px" style="shape-rendering:geometricPrecision; text-rendering:geometricPrecision; image-rendering:optimizeQuality; fill-rule:evenodd; clip-rule:evenodd" xmlns:xlink="http://www.w3.org/1999/xlink">
<g><path style="opacity:1" fill="#070707" d="M 1663.5,29.5 C 1663.17,63.5065 1663.5,97.5065 1664.5,131.5C 1665.11,131.376 1665.44,131.043 1665.5,130.5C 1689.17,111.661 1716.17,104.161 1746.5,108C 1787.52,113.677 1814.68,136.177 1828,175.5C 1831.08,185.962 1833.08,196.629 1834,207.5C 1834.5,263.832 1834.67,320.166 1834.5,376.5C 1799.83,376.5 1765.17,376.5 1730.5,376.5C 1730.96,325.143 1730.46,273.81 1729,222.5C 1723.72,202.095 1710.55,193.595 1689.5,197C 1675.78,200.716 1667.62,209.55 1665,223.5C 1664.5,274.499 1664.33,325.499 1664.5,376.5C 1629.5,376.5 1594.5,376.5 1559.5,376.5C 1559.5,260.833 1559.5,145.167 1559.5,29.5C 1594.17,29.5 1628.83,29.5 1663.5,29.5 Z M 1576.5,46.5 C 1600.17,46.5 1623.83,46.5 1647.5,46.5C 1647.33,90.8346 1647.5,135.168 1648,179.5C 1655.97,166.188 1665.47,154.021 1676.5,143C 1704.14,123.308 1734.14,118.975 1766.5,130C 1789.44,140.272 1804.6,157.438 1812,181.5C 1814.53,189.996 1816.19,198.663 1817,207.5C 1817.5,258.166 1817.67,308.832 1817.5,359.5C 1794.17,359.5 1770.83,359.5 1747.5,359.5C 1747.67,315.832 1747.5,272.165 1747,228.5C 1744.5,197.837 1728,181.504 1697.5,179.5C 1669.19,180.237 1652.69,194.57 1648,222.5C 1647.5,268.165 1647.33,313.832 1647.5,359.5C 1623.83,359.5 1600.17,359.5 1576.5,359.5C 1576.5,255.167 1576.5,150.833 1576.5,46.5 Z"/></g>
<g><path style="opacity:1" fill="#838383" d="M 1663.5,29.5 C 1664.17,63.1667 1664.83,96.8333 1665.5,130.5C 1665.44,131.043 1665.11,131.376 1664.5,131.5C 1663.5,97.5065 1663.17,63.5065 1663.5,29.5 Z"/></g>
<g><path style="opacity:1" fill="#010101" d="M 33.5,31.5 C 135.833,31.5 238.167,31.5 340.5,31.5C 340.5,252.833 340.5,474.167 340.5,695.5C 238.167,695.5 135.833,695.5 33.5,695.5C 33.5,474.167 33.5,252.833 33.5,31.5 Z M 182.5,69.5 C 232.409,70.3481 267.576,93.3481 288,138.5C 291.997,149.487 294.331,160.82 295,172.5C 295.667,219.833 295.667,267.167 295,314.5C 293.039,326.46 286.206,333.96 274.5,337C 216.167,337.667 157.833,337.667 99.5,337C 89.8603,334.695 83.3603,328.862 80,319.5C 78.3564,269.204 78.0231,218.871 79,168.5C 84.391,125.805 106.558,95.6388 145.5,78C 157.582,73.3932 169.915,70.5599 182.5,69.5 Z M 202.5,415.5 C 202.5,423.833 202.5,432.167 202.5,440.5C 231.5,440.5 260.5,440.5 289.5,440.5C 289.5,454.833 289.5,469.167 289.5,483.5C 216.5,483.5 143.5,483.5 70.5,483.5C 70.3334,460.164 70.5,436.831 71,413.5C 73.7521,398.479 82.2521,388.313 96.5,383C 120.532,375.582 144.866,374.582 169.5,380C 189.009,384.006 200.009,395.84 202.5,415.5 Z M 116.5,498.5 C 130.167,498.5 143.833,498.5 157.5,498.5C 157.5,513.167 157.5,527.833 157.5,542.5C 142.761,542.05 128.095,542.55 113.5,544C 108.845,546.897 107.345,551.063 109,556.5C 109.785,558.286 110.951,559.786 112.5,561C 115.753,562.036 119.086,562.703 122.5,563C 161.5,563.667 200.5,563.667 239.5,563C 248.484,562.694 252.317,558.194 251,549.5C 249.833,547 248,545.167 245.5,544C 228.89,542.559 212.223,542.059 195.5,542.5C 195.5,527.833 195.5,513.167 195.5,498.5C 213.836,498.333 232.17,498.5 250.5,499C 274.009,502.509 287.509,516.009 291,539.5C 294.673,558.467 290.673,575.467 279,590.5C 269.57,599.297 258.403,604.463 245.5,606C 203.833,606.667 162.167,606.667 120.5,606C 80.5288,602.262 63.3622,580.429 69,540.5C 74.1551,514.35 89.9884,500.35 116.5,498.5 Z M 70.5,622.5 C 143.5,622.5 216.5,622.5 289.5,622.5C 289.5,636.833 289.5,651.167 289.5,665.5C 216.5,665.5 143.5,665.5 70.5,665.5C 70.5,651.167 70.5,636.833 70.5,622.5 Z"/></g>
<g><path style="opacity:1" fill="#040404" d="M 179.5,81.5 C 199.58,80.3537 218.246,84.8537 235.5,95C 220.859,123.112 198.193,132.779 167.5,124C 153.833,118.333 144.167,108.667 138.5,95C 151.312,87.5624 164.978,83.0624 179.5,81.5 Z"/></g>
<g><path style="opacity:1" fill="#020202" d="M 245.5,101.5 C 268.473,119.437 280.973,143.104 283,172.5C 283.667,219.5 283.667,266.5 283,313.5C 282.08,318.188 279.58,321.688 275.5,324C 267.585,325.401 259.585,325.901 251.5,325.5C 251.5,275.833 251.5,226.167 251.5,176.5C 247.5,176.5 243.5,176.5 239.5,176.5C 239.5,226.167 239.5,275.833 239.5,325.5C 204.5,325.5 169.5,325.5 134.5,325.5C 134.5,275.833 134.5,226.167 134.5,176.5C 130.5,176.5 126.5,176.5 122.5,176.5C 122.5,226.167 122.5,275.833 122.5,325.5C 114.415,325.901 106.415,325.401 98.5,324C 94.4034,321.64 91.9034,318.14 91,313.5C 90.3333,265.5 90.3333,217.5 91,169.5C 93.7991,141.891 105.966,119.557 127.5,102.5C 147.001,135.421 175.001,146.254 211.5,135C 227.347,128.319 238.68,117.153 245.5,101.5 Z"/></g>
<g><path style="opacity:1" fill="#070707" d="M 946.5,106.5 C 983.149,102.925 1016.82,111.091 1047.5,131C 1082.13,158.8 1099.13,195.133 1098.5,240C 1098.42,249.81 1097.42,259.477 1095.5,269C 1041.17,269.333 986.833,269.667 932.5,270C 934.839,281.391 941.505,288.724 952.5,292C 968.338,295.083 979.338,289.25 985.5,274.5C 1021.83,273.5 1058.16,273.167 1094.5,273.5C 1084.17,327.33 1052.51,361.496 999.5,376C 959.314,384.728 921.314,379.061 885.5,359C 846.315,330.631 826.982,291.965 827.5,243C 826.743,197.532 843.743,160.532 878.5,132C 899.029,117.659 921.696,109.159 946.5,106.5 Z M 947.5,123.5 C 980.194,120.008 1010.19,127.175 1037.5,145C 1067.7,169.189 1082.37,200.855 1081.5,240C 1081.48,244.082 1081.15,248.082 1080.5,252C 1024.83,252.167 969.164,252.667 913.5,253.5C 913.708,266.129 916.541,278.129 922,289.5C 935.964,307.875 954.13,313.709 976.5,307C 984.985,304.179 991.318,298.845 995.5,291C 1021.5,290.333 1047.5,290.333 1073.5,291C 1058.58,327.482 1031.91,350.482 993.5,360C 958.936,367.128 926.269,362.128 895.5,345C 868.991,327.11 852.824,302.277 847,270.5C 840.264,233.955 846.597,199.955 866,168.5C 886.68,141.907 913.846,126.907 947.5,123.5 Z M 990.5,209.5 C 971.992,209.83 953.659,209.497 935.5,208.5C 941.028,197.146 950.195,191.812 963,192.5C 976.206,191.91 985.372,197.577 990.5,209.5 Z"/></g>
<g><path style="opacity:1" fill="#070707" d="M 1550.5,218.5 C 1550.5,219.5 1550.5,220.5 1550.5,221.5C 1514.5,221.5 1478.5,221.5 1442.5,221.5C 1440.73,215.386 1437.9,209.719 1434,204.5C 1421.23,195.066 1409.23,196.066 1398,207.5C 1394.27,213.677 1391.94,220.344 1391,227.5C 1390.33,237.833 1390.33,248.167 1391,258.5C 1392.16,271.008 1397.99,280.508 1408.5,287C 1419.37,290.492 1428.54,287.992 1436,279.5C 1438.56,274.479 1440.73,269.312 1442.5,264C 1478.83,263.5 1515.17,263.333 1551.5,263.5C 1542.45,326.157 1507.12,364.324 1445.5,378C 1405.78,384.494 1369.11,376.827 1335.5,355C 1300.14,326.357 1282.81,289.023 1283.5,243C 1283.66,234.445 1284.32,225.945 1285.5,217.5C 1269.41,216.916 1253.41,217.75 1237.5,220C 1222.63,223.199 1214.47,232.366 1213,247.5C 1212.5,290.499 1212.33,333.499 1212.5,376.5C 1177.5,376.5 1142.5,376.5 1107.5,376.5C 1107.5,287.5 1107.5,198.5 1107.5,109.5C 1142.5,109.5 1177.5,109.5 1212.5,109.5C 1212.33,119.172 1212.5,128.839 1213,138.5C 1234.77,116.295 1261.27,105.961 1292.5,107.5C 1292.33,134.169 1292.5,160.835 1293,187.5C 1293.72,186.956 1294.22,186.289 1294.5,185.5C 1305.17,158.334 1323.17,137.5 1348.5,123C 1386.17,104.815 1425.17,101.482 1465.5,113C 1514.6,131.281 1542.93,166.448 1550.5,218.5 Z M 1403.5,123.5 C 1432.79,120.59 1460.12,126.424 1485.5,141C 1508.42,156.438 1523.42,177.604 1530.5,204.5C 1505.17,205.666 1479.84,205.833 1454.5,205C 1446.93,189.043 1434.27,180.877 1416.5,180.5C 1394.77,183.058 1381.27,195.058 1376,216.5C 1372.67,234.167 1372.67,251.833 1376,269.5C 1383.33,296.734 1400.83,308.234 1428.5,304C 1440.59,300.245 1449.26,292.578 1454.5,281C 1479.84,280.167 1505.17,280.334 1530.5,281.5C 1516.45,327.866 1485.45,354.699 1437.5,362C 1403.34,366.37 1372,359.037 1343.5,340C 1319.47,320.588 1305.64,295.421 1302,264.5C 1296.91,229.955 1303.57,197.955 1322,168.5C 1342.69,141.905 1369.85,126.905 1403.5,123.5 Z M 1273.5,124.5 C 1274.5,124.414 1275.33,124.748 1276,125.5C 1276.5,150.498 1276.67,175.498 1276.5,200.5C 1261.34,199.826 1246.34,200.993 1231.5,204C 1210.16,210.157 1198.33,224.324 1196,246.5C 1195.5,284.165 1195.33,321.832 1195.5,359.5C 1171.83,359.5 1148.17,359.5 1124.5,359.5C 1124.5,281.833 1124.5,204.167 1124.5,126.5C 1148.17,126.5 1171.83,126.5 1195.5,126.5C 1195.33,147.169 1195.5,167.836 1196,188.5C 1205.99,172.176 1217.83,157.343 1231.5,144C 1243.93,133.951 1257.93,127.451 1273.5,124.5 Z"/></g>
<g><path style="opacity:1" fill="#080808" d="M 530.5,107.5 C 569.903,103.802 602.403,116.802 628,146.5C 660.556,110.728 700.389,99.2277 747.5,112C 788.871,126.194 812.704,155.028 819,198.5C 820.464,257.81 820.964,317.144 820.5,376.5C 785.833,376.5 751.167,376.5 716.5,376.5C 716.963,325.474 716.463,274.474 715,223.5C 710.378,207.927 699.878,200.26 683.5,200.5C 666.216,199.97 655.382,207.97 651,224.5C 650.5,275.166 650.333,325.832 650.5,376.5C 615.5,376.5 580.5,376.5 545.5,376.5C 545.667,326.499 545.5,276.499 545,226.5C 541.458,208.797 530.624,200.13 512.5,200.5C 494.341,200.171 483.507,208.838 480,226.5C 479.5,276.499 479.333,326.499 479.5,376.5C 444.5,376.5 409.5,376.5 374.5,376.5C 374.5,287.5 374.5,198.5 374.5,109.5C 409.5,109.5 444.5,109.5 479.5,109.5C 479.334,116.175 479.5,122.842 480,129.5C 494.784,117.356 511.617,110.022 530.5,107.5 Z M 530.5,124.5 C 574.936,120.457 607.103,138.124 627,177.5C 650.559,136.139 686.059,118.973 733.5,126C 772.512,135.347 795.345,159.847 802,199.5C 803.46,252.81 803.96,306.143 803.5,359.5C 780.167,359.5 756.833,359.5 733.5,359.5C 733.667,316.165 733.5,272.832 733,229.5C 729.767,199.601 713.1,184.268 683,183.5C 660.289,183.344 644.622,193.678 636,214.5C 635.333,217.167 634.667,219.833 634,222.5C 633.5,268.165 633.333,313.832 633.5,359.5C 609.833,359.5 586.167,359.5 562.5,359.5C 562.667,314.832 562.5,270.165 562,225.5C 559.151,204.995 547.984,191.495 528.5,185C 506.271,179.427 487.438,184.927 472,201.5C 466.624,208.962 463.624,217.295 463,226.5C 462.5,270.832 462.333,315.165 462.5,359.5C 438.833,359.5 415.167,359.5 391.5,359.5C 391.5,281.833 391.5,204.167 391.5,126.5C 415.167,126.5 438.833,126.5 462.5,126.5C 462.333,143.17 462.5,159.837 463,176.5C 470.691,164.471 479.524,153.304 489.5,143C 501.731,133.55 515.397,127.383 530.5,124.5 Z"/></g>
<g><path style="opacity:1" fill="#7f7f7f" d="M 1292.5,107.5 C 1293.17,133.5 1293.83,159.5 1294.5,185.5C 1294.22,186.289 1293.72,186.956 1293,187.5C 1292.5,160.835 1292.33,134.169 1292.5,107.5 Z"/></g>
<g><path style="opacity:1" fill="#040404" d="M 955.5,175.5 C 991.053,174.055 1009.05,191.055 1009.5,226.5C 977.5,226.5 945.5,226.5 913.5,226.5C 914.44,207.109 922.773,191.942 938.5,181C 944.061,178.468 949.728,176.634 955.5,175.5 Z M 990.5,209.5 C 971.992,209.83 953.659,209.497 935.5,208.5C 941.028,197.146 950.195,191.812 963,192.5C 976.206,191.91 985.372,197.577 990.5,209.5 Z"/></g>
<g><path style="opacity:1" fill="#7e7e7e" d="M 935.5,208.5 C 953.659,209.497 971.992,209.83 990.5,209.5C 971.996,210.828 953.329,210.828 934.5,209.5C 934.624,208.893 934.957,208.56 935.5,208.5 Z"/></g>
<g><path style="opacity:1" fill="#3f3f3f" d="M 1550.5,218.5 C 1551.43,219.568 1551.77,220.901 1551.5,222.5C 1515,222.832 1478.66,222.498 1442.5,221.5C 1478.5,221.5 1514.5,221.5 1550.5,221.5C 1550.5,220.5 1550.5,219.5 1550.5,218.5 Z"/></g>
<g><path style="opacity:1" fill="#010101" d="M 469.5,400.5 C 494.994,398.436 519.661,401.936 543.5,411C 576.532,426.215 593.866,452.049 595.5,488.5C 566.833,488.5 538.167,488.5 509.5,488.5C 508.434,471.769 499.434,463.103 482.5,462.5C 464.395,466.041 458.895,476.375 466,493.5C 472.547,500.53 480.381,505.697 489.5,509C 514.593,517.25 538.926,527.25 562.5,539C 594.919,560.235 606.085,589.735 596,627.5C 585.095,658.736 563.595,678.569 531.5,687C 492.831,696.408 455.831,692.074 420.5,674C 393.209,657.272 378.875,632.772 377.5,600.5C 405.502,600.333 433.502,600.5 461.5,601C 465.615,624.564 479.282,633.231 502.5,627C 515.155,619.895 518.322,609.728 512,596.5C 506.064,590.111 498.898,585.611 490.5,583C 473.833,577 457.167,571 440.5,565C 382.116,542.525 364.949,502.359 389,444.5C 402.544,423.985 421.377,410.818 445.5,405C 453.58,403.156 461.58,401.656 469.5,400.5 Z"/></g>
<g><path style="opacity:1" fill="#010101" d="M 719.5,462.5 C 733.167,462.5 746.833,462.5 760.5,462.5C 760.5,484.5 760.5,506.5 760.5,528.5C 746.833,528.5 733.167,528.5 719.5,528.5C 719.033,556.884 719.533,585.217 721,613.5C 723.251,618.369 727.085,620.869 732.5,621C 741.827,621.5 751.161,621.666 760.5,621.5C 760.5,643.833 760.5,666.167 760.5,688.5C 743.83,688.667 727.163,688.5 710.5,688C 670.041,683.874 646.875,661.707 641,621.5C 639.618,590.52 639.118,559.52 639.5,528.5C 630.5,528.5 621.5,528.5 612.5,528.5C 612.5,506.5 612.5,484.5 612.5,462.5C 621.5,462.5 630.5,462.5 639.5,462.5C 640.497,444.674 640.83,426.674 640.5,408.5C 666.5,408.5 692.5,408.5 718.5,408.5C 718.17,426.674 718.503,444.674 719.5,462.5 Z"/></g>
<g><path style="opacity:1" fill="#3b3b3b" d="M 719.5,462.5 C 718.503,444.674 718.17,426.674 718.5,408.5C 692.5,408.5 666.5,408.5 640.5,408.5C 640.83,426.674 640.497,444.674 639.5,462.5C 639.5,444.167 639.5,425.833 639.5,407.5C 666.167,407.5 692.833,407.5 719.5,407.5C 719.5,425.833 719.5,444.167 719.5,462.5 Z"/></g>
<g><path style="opacity:1" fill="#040404" d="M 162.5,433.5 C 162.5,435.5 162.5,437.5 162.5,439.5C 145.167,439.5 127.833,439.5 110.5,439.5C 110.5,437.167 110.5,434.833 110.5,432.5C 110.441,428.452 112.108,425.285 115.5,423C 129.536,418.345 143.536,418.345 157.5,423C 160.805,425.781 162.472,429.281 162.5,433.5 Z"/></g>
<g><path style="opacity:1" fill="#494848" d="M 110.5,432.5 C 110.5,434.833 110.5,437.167 110.5,439.5C 127.833,439.5 145.167,439.5 162.5,439.5C 162.5,437.5 162.5,435.5 162.5,433.5C 163.468,435.607 163.802,437.941 163.5,440.5C 145.5,440.5 127.5,440.5 109.5,440.5C 109.194,437.615 109.527,434.948 110.5,432.5 Z"/></g>
<g><path style="opacity:1" fill="#545353" d="M 202.5,415.5 C 203.492,423.316 203.826,431.316 203.5,439.5C 232.5,439.5 261.5,439.5 290.5,439.5C 290.829,454.343 290.496,469.01 289.5,483.5C 289.5,469.167 289.5,454.833 289.5,440.5C 260.5,440.5 231.5,440.5 202.5,440.5C 202.5,432.167 202.5,423.833 202.5,415.5 Z"/></g>
<g><path style="opacity:1" fill="#010101" d="M 884.5,459.5 C 925.765,456.633 960.265,470.3 988,500.5C 1008.39,527.746 1016.39,558.413 1012,592.5C 1001.96,650.87 967.461,683.703 908.5,691C 867.925,695.476 833.092,683.643 804,655.5C 779.095,624.348 770.429,589.015 778,549.5C 787.995,505.171 814.828,476.671 858.5,464C 867.252,462.153 875.919,460.653 884.5,459.5 Z M 887.5,528.5 C 913.491,527.986 928.325,540.652 932,566.5C 934.224,582.515 930.891,597.182 922,610.5C 907.418,623.95 891.251,626.117 873.5,617C 865.019,610.518 859.853,602.018 858,591.5C 855.408,577.558 856.408,563.892 861,550.5C 866.112,538.547 874.945,531.214 887.5,528.5 Z"/></g>
<g><path style="opacity:1" fill="#010101" d="M 1300.5,459.5 C 1330.77,457.76 1358.43,465.26 1383.5,482C 1408.49,502.471 1421.99,528.971 1424,561.5C 1424.63,571.516 1424.46,581.516 1423.5,591.5C 1373.5,591.5 1323.5,591.5 1273.5,591.5C 1274.15,613.87 1285.48,626.204 1307.5,628.5C 1319.9,628.083 1328.9,622.416 1334.5,611.5C 1362.83,610.167 1391.17,610.167 1419.5,611.5C 1404.85,658.18 1373.18,684.68 1324.5,691C 1283.01,695.652 1248.18,682.819 1220,652.5C 1199.98,624.766 1191.98,593.766 1196,559.5C 1205.28,499.383 1240.12,466.05 1300.5,459.5 Z M 1302.5,522.5 C 1319.05,520.198 1331.88,525.864 1341,539.5C 1342.79,544 1343.63,548.667 1343.5,553.5C 1320.5,553.5 1297.5,553.5 1274.5,553.5C 1276.92,536.753 1286.25,526.42 1302.5,522.5 Z"/></g>
<g><path style="opacity:1" fill="#010101" d="M 1183.5,460.5 C 1185.17,460.5 1186.83,460.5 1188.5,460.5C 1188.5,488.833 1188.5,517.167 1188.5,545.5C 1176.83,545.333 1165.16,545.5 1153.5,546C 1130.76,547.743 1118.26,559.91 1116,582.5C 1115.5,617.832 1115.33,653.165 1115.5,688.5C 1089.17,688.5 1062.83,688.5 1036.5,688.5C 1036.5,613.167 1036.5,537.833 1036.5,462.5C 1062.83,462.5 1089.17,462.5 1115.5,462.5C 1115.33,475.504 1115.5,488.504 1116,501.5C 1132.6,477.956 1155.1,464.289 1183.5,460.5 Z"/></g>
</svg>
