 <?xml version="1.0" encoding="UTF-8"?>
<!DOCTYPE svg PUBLIC "-//W3C//DTD SVG 1.1//EN" "http://www.w3.org/Graphics/SVG/1.1/DTD/svg11.dtd">
<svg xmlns="http://www.w3.org/2000/svg" version="1.1" width="958px" height="363px" style="shape-rendering:geometricPrecision; text-rendering:geometricPrecision; image-rendering:optimizeQuality; fill-rule:evenodd; clip-rule:evenodd" xmlns:xlink="http://www.w3.org/1999/xlink">
<g><path style="opacity:1" fill="#000000" d="M 390.5,14.5 C 442.062,10.3011 488.395,23.6344 529.5,54.5C 524.579,72.1083 519.912,89.775 515.5,107.5C 513.278,107.822 511.444,107.155 510,105.5C 489.731,72.8988 462.231,48.3988 427.5,32C 374.912,13.3518 330.745,25.1851 295,67.5C 282.732,85.0438 274.565,104.377 270.5,125.5C 260.81,125.832 251.144,125.498 241.5,124.5C 260.945,80.5548 292.612,48.7215 336.5,29C 353.951,21.6395 371.951,16.8062 390.5,14.5 Z"/></g>
<g><path style="opacity:1" fill="#000000" d="M 138.5,18.5 C 158.167,18.5 177.833,18.5 197.5,18.5C 196.894,22.6512 194.727,25.9846 191,28.5C 188.576,33.1944 187.243,38.1944 187,43.5C 186.5,70.8313 186.333,98.1646 186.5,125.5C 174.167,125.5 161.833,125.5 149.5,125.5C 149.667,98.4979 149.5,71.4979 149,44.5C 149.127,35.5313 145.794,28.198 139,22.5C 138.51,21.2068 138.343,19.8734 138.5,18.5 Z"/></g>
<g><path style="opacity:1" fill="#000000" d="M 590.5,18.5 C 617.835,18.3334 645.169,18.5 672.5,19C 701.714,19.1725 730.047,24.1725 757.5,34C 798.736,50.6438 818.07,81.1438 815.5,125.5C 803.167,125.5 790.833,125.5 778.5,125.5C 781.363,69.026 755.029,35.8593 699.5,26C 679.261,23.347 658.928,22.1804 638.5,22.5C 638.5,56.8333 638.5,91.1667 638.5,125.5C 625.75,126.135 613.25,125.468 601,123.5C 600.667,94.8333 600.333,66.1667 600,37.5C 599.025,31.6941 596.191,27.0275 591.5,23.5C 590.548,21.9547 590.215,20.288 590.5,18.5 Z"/></g>
<g><path style="opacity:1" fill="#000000" d="M 18.5,148.5 C 20.7157,149.203 22.549,150.536 24,152.5C 32.3333,163.5 40.6667,174.5 49,185.5C 57.3333,174.5 65.6667,163.5 74,152.5C 75.3513,150.981 76.8513,149.648 78.5,148.5C 79.8333,170.833 79.8333,193.167 78.5,215.5C 77.6669,194.508 77.1669,173.508 77,152.5C 68.2114,165.085 58.7114,177.085 48.5,188.5C 39.0909,176.68 29.9242,164.68 21,152.5C 20.8331,173.508 20.3331,194.508 19.5,215.5C 18.5003,193.177 18.167,170.843 18.5,148.5 Z"/></g>
<g><path style="opacity:1" fill="#000000" d="M 126.5,148.5 C 127.901,148.971 129.234,149.638 130.5,150.5C 119.854,151.499 109.187,151.832 98.5,151.5C 98.5,161.167 98.5,170.833 98.5,180.5C 108.5,180.5 118.5,180.5 128.5,180.5C 128.5,181.5 128.5,182.5 128.5,183.5C 118.5,183.5 108.5,183.5 98.5,183.5C 98.5,193.5 98.5,203.5 98.5,213.5C 109.52,213.168 120.52,213.501 131.5,214.5C 119.852,215.499 108.186,215.832 96.5,215.5C 96.5,193.5 96.5,171.5 96.5,149.5C 106.681,149.827 116.681,149.494 126.5,148.5 Z"/></g>
<g><path style="opacity:1" fill="#000000" d="M 221.5,148.5 C 233.989,146.721 244.989,149.888 254.5,158C 253.975,158.692 253.308,159.192 252.5,159.5C 236.381,146.931 220.881,147.597 206,161.5C 196.011,175.462 196.011,189.462 206,203.5C 217.057,214.803 229.89,217.303 244.5,211C 247.52,208.999 250.52,207.332 253.5,206C 254.458,207.147 254.125,208.147 252.5,209C 238.888,218.115 224.888,218.782 210.5,211C 195.694,197.934 192.527,182.434 201,164.5C 205.988,156.665 212.821,151.332 221.5,148.5 Z"/></g>
<g><path style="opacity:1" fill="#010101" d="M 354.5,148.5 C 355.496,148.414 356.329,148.748 357,149.5C 366.979,171.289 376.812,193.123 386.5,215C 385.365,215.749 384.365,215.583 383.5,214.5C 379.559,206.284 375.892,197.951 372.5,189.5C 361.515,188.334 350.515,188.168 339.5,189C 335.806,198.221 331.472,207.055 326.5,215.5C 326.167,215 325.833,214.5 325.5,214C 335.316,192.204 344.983,170.371 354.5,148.5 Z M 355.5,152.5 C 360.725,163.291 365.725,174.291 370.5,185.5C 360.856,186.498 351.19,186.832 341.5,186.5C 345.61,174.945 350.277,163.611 355.5,152.5 Z"/></g>
<g><path style="opacity:1" fill="#0e0f0c" d="M 395.5,148.5 C 397.017,148.511 398.184,149.177 399,150.5C 412.946,170.779 427.279,190.779 442,210.5C 442.5,190.169 442.667,169.836 442.5,149.5C 443.5,149.5 444.5,149.5 445.5,149.5C 445.5,171.833 445.5,194.167 445.5,216.5C 443.09,216.079 441.257,214.746 440,212.5C 426.246,192.657 412.246,172.991 398,153.5C 397.833,174.175 397.333,194.841 396.5,215.5C 395.5,193.177 395.167,170.843 395.5,148.5 Z"/></g>
<g><path style="opacity:1" fill="#1b1c18" d="M 557.5,148.5 C 568.018,146.437 576.684,149.437 583.5,157.5C 582.635,158.583 581.635,158.749 580.5,158C 571.343,149.126 561.509,148.293 551,155.5C 546.067,162.405 546.567,168.905 552.5,175C 559.565,178.865 566.898,182.198 574.5,185C 583.831,191.139 585.997,199.306 581,209.5C 572.99,216.499 563.824,218.332 553.5,215C 549.302,213.067 545.635,210.401 542.5,207C 543.025,206.308 543.692,205.808 544.5,205.5C 553.53,214.843 563.864,216.676 575.5,211C 583.049,203.959 583.382,196.626 576.5,189C 568.619,185.147 560.619,181.481 552.5,178C 543.227,169.074 543.227,160.074 552.5,151C 554.491,150.626 556.158,149.793 557.5,148.5 Z"/></g>
<g><path style="opacity:1" fill="#1e1d1a" d="M 680.5,148.5 C 691.05,146.458 699.717,149.458 706.5,157.5C 706.167,157.833 705.833,158.167 705.5,158.5C 697.33,150.623 687.997,148.79 677.5,153C 669.508,160.713 669.508,168.38 677.5,176C 684.833,179.333 692.167,182.667 699.5,186C 709.771,194.629 710.104,203.629 700.5,213C 691.996,217.208 683.329,217.541 674.5,214C 671.359,212.114 668.692,209.78 666.5,207C 666.833,206.5 667.167,206 667.5,205.5C 677.689,215.65 688.856,216.984 701,209.5C 706.084,202.189 705.584,195.356 699.5,189C 692.369,185.287 685.036,181.953 677.5,179C 666.762,171.155 665.762,162.155 674.5,152C 676.727,151.059 678.727,149.892 680.5,148.5 Z"/></g>
<g><path style="opacity:1" fill="#1a1a16" d="M 795.5,148.5 C 814.731,145.922 827.898,153.589 835,171.5C 839.661,191.554 832.827,206.054 814.5,215C 793.918,220.127 779.751,212.96 772,193.5C 767.263,171.631 775.097,156.631 795.5,148.5 Z M 797.5,150.5 C 824.507,151.008 836.341,164.675 833,191.5C 827.302,207.86 815.802,215.36 798.5,214C 777.655,207.826 769.488,193.993 774,172.5C 778.186,161.143 786.02,153.81 797.5,150.5 Z"/></g>
<g><path style="opacity:1" fill="#000000" d="M 145.5,149.5 C 154.173,149.334 162.84,149.5 171.5,150C 184.624,154.3 188.79,163.133 184,176.5C 180.69,181.408 176.19,184.742 170.5,186.5C 176.957,195.914 183.291,205.414 189.5,215C 188.216,215.684 187.049,215.517 186,214.5C 180.205,205.074 174.038,195.908 167.5,187C 160.918,186.19 154.418,186.357 148,187.5C 147.832,196.851 147.332,206.184 146.5,215.5C 145.5,193.51 145.167,171.51 145.5,149.5 Z M 147.5,151.5 C 154.841,151.334 162.174,151.5 169.5,152C 178.214,153.546 182.88,158.712 183.5,167.5C 183.128,177.707 177.795,183.207 167.5,184C 161.167,184.667 154.833,184.667 148.5,184C 147.513,173.248 147.18,162.415 147.5,151.5 Z"/></g>
<g><path style="opacity:1" fill="#000000" d="M 266.5,149.5 C 268.475,159.446 269.142,169.779 268.5,180.5C 283.504,180.667 298.504,180.5 313.5,180C 314.156,169.894 314.822,159.727 315.5,149.5C 316.833,171.5 316.833,193.5 315.5,215.5C 314.501,204.52 314.168,193.52 314.5,182.5C 299.167,182.5 283.833,182.5 268.5,182.5C 268.832,193.52 268.499,204.52 267.5,215.5C 266.5,193.51 266.167,171.51 266.5,149.5 Z"/></g>
<g><path style="opacity:1" fill="#121310" d="M 466.5,148.5 C 475.805,149.122 485.139,149.955 494.5,151C 511.333,157.821 518.5,170.321 516,188.5C 513.084,203.748 503.917,212.582 488.5,215C 479.588,215.816 470.755,215.65 462,214.5C 461.333,193.167 461.333,171.833 462,150.5C 463.622,149.901 465.122,149.234 466.5,148.5 Z M 464.5,151.5 C 472.174,151.334 479.841,151.5 487.5,152C 510.226,157.605 518.392,171.772 512,194.5C 507.918,203.584 501.085,209.417 491.5,212C 482.552,213.307 473.552,213.807 464.5,213.5C 464.5,192.833 464.5,172.167 464.5,151.5 Z"/></g>
<g><path style="opacity:1" fill="#000000" d="M 529.5,149.5 C 530.832,160.146 531.499,171.146 531.5,182.5C 531.167,193.5 530.833,204.5 530.5,215.5C 529.5,193.51 529.167,171.51 529.5,149.5 Z"/></g>
<g><path style="opacity:1" fill="#030302" d="M 596.5,149.5 C 608.186,149.168 619.852,149.501 631.5,150.5C 620.854,151.499 610.187,151.832 599.5,151.5C 599.5,161.167 599.5,170.833 599.5,180.5C 609.5,180.5 619.5,180.5 629.5,180.5C 629.5,181.5 629.5,182.5 629.5,183.5C 619.5,183.5 609.5,183.5 599.5,183.5C 599.5,193.5 599.5,203.5 599.5,213.5C 610.52,213.168 621.52,213.501 632.5,214.5C 620.518,215.499 608.518,215.832 596.5,215.5C 596.5,193.5 596.5,171.5 596.5,149.5 Z"/></g>
<g><path style="opacity:1" fill="#000000" d="M 759.5,148.5 C 761.343,147.957 763.01,148.624 764.5,150.5C 756.528,151.498 748.528,151.831 740.5,151.5C 739.833,236.833 739.167,236.833 738.5,151.5C 730.472,151.831 722.472,151.498 714.5,150.5C 729.661,149.833 744.661,149.167 759.5,148.5 Z"/></g>
<g><path style="opacity:1" fill="#11100e" d="M 849.5,149.5 C 858.173,149.334 866.84,149.5 875.5,150C 882.862,151.094 887.362,155.261 889,162.5C 891.218,175.236 886.051,183.069 873.5,186C 880.167,195.667 886.833,205.333 893.5,215C 891.633,215.711 890.133,215.211 889,213.5C 883.291,204.581 877.458,195.748 871.5,187C 864.842,186.5 858.175,186.334 851.5,186.5C 851.832,196.19 851.498,205.856 850.5,215.5C 849.5,193.51 849.167,171.51 849.5,149.5 Z M 851.5,151.5 C 860.235,151.124 868.902,151.624 877.5,153C 887.4,158.37 889.9,166.203 885,176.5C 882.76,179.402 879.927,181.569 876.5,183C 868.219,184.287 859.886,184.787 851.5,184.5C 851.5,173.5 851.5,162.5 851.5,151.5 Z"/></g>
<g><path style="opacity:1" fill="#000000" d="M 904.5,149.5 C 915.853,149.168 927.186,149.501 938.5,150.5C 927.854,151.499 917.187,151.832 906.5,151.5C 906.5,161.167 906.5,170.833 906.5,180.5C 916.5,180.5 926.5,180.5 936.5,180.5C 936.5,181.5 936.5,182.5 936.5,183.5C 926.5,183.5 916.5,183.5 906.5,183.5C 906.5,193.5 906.5,203.5 906.5,213.5C 917.52,213.168 928.52,213.501 939.5,214.5C 927.852,215.499 916.186,215.832 904.5,215.5C 904.5,193.5 904.5,171.5 904.5,149.5 Z"/></g>
<g><path style="opacity:1" fill="#000000" d="M 603.5,237.5 C 615.086,238.478 626.753,238.811 638.5,238.5C 638.333,268.169 638.5,297.835 639,327.5C 639.471,334.451 642.304,340.118 647.5,344.5C 648.429,345.689 648.762,347.022 648.5,348.5C 629.167,348.5 609.833,348.5 590.5,348.5C 590.238,347.022 590.571,345.689 591.5,344.5C 596.191,340.973 599.025,336.306 600,330.5C 600.5,299.835 600.667,269.168 600.5,238.5C 601.791,238.737 602.791,238.404 603.5,237.5 Z"/></g>
<g><path style="opacity:1" fill="#000000" d="M 149.5,238.5 C 161.833,238.5 174.167,238.5 186.5,238.5C 186.333,267.502 186.5,296.502 187,325.5C 187.14,333.779 190.473,340.446 197,345.5C 197.483,346.448 197.649,347.448 197.5,348.5C 177.833,348.5 158.167,348.5 138.5,348.5C 138.943,345.376 140.61,343.043 143.5,341.5C 147.022,336.421 148.856,330.754 149,324.5C 149.5,295.835 149.667,267.169 149.5,238.5 Z"/></g>
<g><path style="opacity:1" fill="#000000" d="M 240.5,238.5 C 254.171,238.333 267.837,238.5 281.5,239C 313.19,310.942 368.357,343.109 447,335.5C 480.896,330.886 508.896,315.553 531,289.5C 539.471,278.051 547.471,266.385 555,254.5C 556.059,254.63 556.892,255.13 557.5,256C 522.458,325.538 465.791,357.205 387.5,351C 334.986,344.504 292.82,320.338 261,278.5C 252.317,266.135 245.484,252.801 240.5,238.5 Z"/></g>
</svg>
