<?xml version="1.0" encoding="UTF-8"?>
<!DOCTYPE svg PUBLIC "-//W3C//DTD SVG 1.1//EN" "http://www.w3.org/Graphics/SVG/1.1/DTD/svg11.dtd">
<svg xmlns="http://www.w3.org/2000/svg" version="1.1" width="1857px" height="733px" style="shape-rendering:geometricPrecision; text-rendering:geometricPrecision; image-rendering:optimizeQuality; fill-rule:evenodd; clip-rule:evenodd" xmlns:xlink="http://www.w3.org/1999/xlink">
<g><path style="opacity:1" fill="#260661" d="M 1660.5,26.5 C 1660.17,60.5065 1660.5,94.5065 1661.5,128.5C 1662.11,128.376 1662.44,128.043 1662.5,127.5C 1686.76,108.015 1714.43,100.515 1745.5,105C 1784.27,111.096 1810.43,132.596 1824,169.5C 1827.61,180.228 1829.95,191.228 1831,202.5C 1831.5,259.832 1831.67,317.166 1831.5,374.5C 1796.83,374.5 1762.17,374.5 1727.5,374.5C 1727.95,323.146 1727.45,271.813 1726,220.5C 1720.05,198.6 1705.89,190.1 1683.5,195C 1671.02,199.443 1663.85,208.276 1662,221.5C 1661.67,272.167 1661.33,322.833 1661,373.5C 1626.24,374.496 1591.41,374.829 1556.5,374.5C 1556.5,258.5 1556.5,142.5 1556.5,26.5C 1591.17,26.5 1625.83,26.5 1660.5,26.5 Z M 1643.5,43.5 C 1643.17,88.1716 1643.5,132.838 1644.5,177.5C 1645.11,177.376 1645.44,177.043 1645.5,176.5C 1653.4,163.888 1662.4,152.055 1672.5,141C 1696.73,122.82 1723.73,117.153 1753.5,124C 1784.76,133.6 1803.93,154.434 1811,186.5C 1812.43,193.102 1813.43,199.768 1814,206.5C 1814.5,256.499 1814.67,306.499 1814.5,356.5C 1791.17,356.5 1767.83,356.5 1744.5,356.5C 1744.67,312.165 1744.5,267.832 1744,223.5C 1738.71,189.435 1718.88,173.935 1684.5,177C 1657.97,183.719 1644.64,200.886 1644.5,228.5C 1643.5,270.997 1643.17,313.663 1643.5,356.5C 1620.17,356.5 1596.83,356.5 1573.5,356.5C 1573.5,252.167 1573.5,147.833 1573.5,43.5C 1596.83,43.5 1620.17,43.5 1643.5,43.5 Z"/></g>
<g><path style="opacity:1" fill="#9283b0" d="M 1660.5,26.5 C 1661.17,60.1667 1661.83,93.8333 1662.5,127.5C 1662.44,128.043 1662.11,128.376 1661.5,128.5C 1660.5,94.5065 1660.17,60.5065 1660.5,26.5 Z"/></g>
<g><path style="opacity:1" fill="#20015d" d="M 30.5,28.5 C 132.833,28.5 235.167,28.5 337.5,28.5C 337.5,249.833 337.5,471.167 337.5,692.5C 235.167,692.5 132.833,692.5 30.5,692.5C 30.5,471.167 30.5,249.833 30.5,28.5 Z M 169.5,67.5 C 222.718,63.8466 260.885,85.8466 284,133.5C 289.104,146.689 291.771,160.356 292,174.5C 292.667,219.167 292.667,263.833 292,308.5C 291.218,320.281 285.385,328.448 274.5,333C 215.545,334.651 156.545,334.984 97.5,334C 84.6669,330.848 77.5002,322.682 76,309.5C 75.3333,262.5 75.3333,215.5 76,168.5C 80.2785,125.57 101.778,94.737 140.5,76C 150.059,72.3653 159.726,69.5319 169.5,67.5 Z M 199.5,412.5 C 199.5,420.833 199.5,429.167 199.5,437.5C 228.5,437.5 257.5,437.5 286.5,437.5C 286.5,451.833 286.5,466.167 286.5,480.5C 213.5,480.5 140.5,480.5 67.5,480.5C 67.3334,457.831 67.5,435.164 68,412.5C 71.1268,394.369 81.6268,382.869 99.5,378C 126.919,371.315 153.919,372.648 180.5,382C 192.272,388.698 198.605,398.864 199.5,412.5 Z M 192.5,495.5 C 210.503,495.333 228.503,495.5 246.5,496C 270.794,499.96 284.627,514.127 288,538.5C 292.674,575.378 276.84,596.878 240.5,603C 197.145,603.944 153.812,603.611 110.5,602C 80.2128,597.588 65.2128,580.088 65.5,549.5C 64.8673,531.608 71.2006,516.775 84.5,505C 89.1249,501.901 94.1249,499.568 99.5,498C 117.792,496.582 136.125,496.082 154.5,496.5C 154.5,510.833 154.5,525.167 154.5,539.5C 140.496,539.333 126.496,539.5 112.5,540C 105.817,542.626 103.65,547.459 106,554.5C 108.818,558.325 112.652,560.158 117.5,560C 157.833,560.667 198.167,560.667 238.5,560C 248.953,557.373 251.287,551.54 245.5,542.5C 243.615,541.391 241.615,540.557 239.5,540C 223.837,539.5 208.17,539.333 192.5,539.5C 192.5,524.833 192.5,510.167 192.5,495.5 Z M 67.5,620.5 C 140.5,620.5 213.5,620.5 286.5,620.5C 286.5,634.167 286.5,647.833 286.5,661.5C 213.5,661.5 140.5,661.5 67.5,661.5C 67.5,647.833 67.5,634.167 67.5,620.5 Z"/></g>
<g><path style="opacity:1" fill="#c5bdd5" d="M 1643.5,43.5 C 1644.17,87.8333 1644.83,132.167 1645.5,176.5C 1645.44,177.043 1645.11,177.376 1644.5,177.5C 1643.5,132.838 1643.17,88.1716 1643.5,43.5 Z"/></g>
<g><path style="opacity:1" fill="#240460" d="M 173.5,78.5 C 189.301,77.4478 204.634,79.6145 219.5,85C 224.196,87.0099 228.529,89.5099 232.5,92.5C 217.666,120.411 194.999,129.911 164.5,121C 151.03,115.363 141.363,105.863 135.5,92.5C 139.471,89.5099 143.804,87.0099 148.5,85C 156.774,82.0655 165.108,79.8989 173.5,78.5 Z"/></g>
<g><path style="opacity:1" fill="#22035f" d="M 124.5,98.5 C 143.35,132.07 171.35,143.237 208.5,132C 224.275,125.225 235.775,114.059 243,98.5C 264.724,115.94 277.057,138.607 280,166.5C 280.667,214.833 280.667,263.167 280,311.5C 278.594,316.573 275.428,320.073 270.5,322C 263.556,323.455 256.556,323.788 249.5,323C 248.503,273.238 248.169,223.405 248.5,173.5C 244.833,173.5 241.167,173.5 237.5,173.5C 237.667,223.168 237.5,272.834 237,322.5C 201.906,323.496 166.74,323.829 131.5,323.5C 131.5,273.5 131.5,223.5 131.5,173.5C 127.5,173.5 123.5,173.5 119.5,173.5C 119.5,223.5 119.5,273.5 119.5,323.5C 112.104,323.8 104.771,323.3 97.5,322C 92.5723,320.073 89.4056,316.573 88,311.5C 87.3333,262.167 87.3333,212.833 88,163.5C 91.8856,137.05 104.052,115.384 124.5,98.5 Z"/></g>
<g><path style="opacity:1" fill="#270761" d="M 1093.5,263.5 C 1038.88,265.158 984.214,266.158 929.5,266.5C 936.486,287.824 950.486,294.324 971.5,286C 976.716,281.565 980.716,276.231 983.5,270C 1019.98,269.008 1056.31,269.341 1092.5,271C 1080.5,326.002 1047.17,360.335 992.5,374C 950.754,382.316 912.087,374.983 876.5,352C 844.73,326.633 827.564,293.467 825,252.5C 821.386,212.361 832.052,176.694 857,145.5C 885.326,116.766 919.826,102.433 960.5,102.5C 1001.2,102.334 1035.7,116.667 1064,145.5C 1091.04,180.335 1100.88,219.668 1093.5,263.5 Z M 993.5,287.5 C 1019.19,286.843 1044.52,287.509 1069.5,289.5C 1051.88,330.258 1020.88,353.424 976.5,359C 941.444,362.988 909.778,354.654 881.5,334C 854.242,308.794 840.909,277.461 841.5,240C 840.901,202.552 854.235,171.218 881.5,146C 912.044,124.019 946.044,116.019 983.5,122C 1031.86,130.361 1062.36,158.195 1075,205.5C 1078.04,220.062 1078.87,234.729 1077.5,249.5C 1021.83,249.5 966.167,249.5 910.5,249.5C 910.427,263.306 913.594,276.306 920,288.5C 933.603,304.864 950.77,310.364 971.5,305C 980.991,301.769 988.324,295.936 993.5,287.5 Z M 987.5,206.5 C 968.992,206.83 950.659,206.497 932.5,205.5C 938.301,194.674 947.468,189.34 960,189.5C 970.052,189.361 978.385,193.028 985,200.5C 986.122,202.407 986.955,204.407 987.5,206.5 Z"/></g>
<g><path style="opacity:1" fill="#270761" d="M 1547.5,214.5 C 1547.5,215.833 1547.5,217.167 1547.5,218.5C 1511.5,218.5 1475.5,218.5 1439.5,218.5C 1437.18,211.043 1433.18,204.543 1427.5,199C 1414.12,192.32 1402.95,194.82 1394,206.5C 1390.79,212.798 1388.79,219.465 1388,226.5C 1386.92,238.947 1387.58,251.28 1390,263.5C 1395.27,282.126 1407.1,288.626 1425.5,283C 1432.92,277.504 1437.59,270.171 1439.5,261C 1475.83,260.5 1512.17,260.333 1548.5,260.5C 1535.88,334.62 1492.05,373.62 1417,377.5C 1375.54,377.804 1340.54,363.137 1312,333.5C 1290.16,306.316 1279.66,275.15 1280.5,240C 1280.44,231.75 1281.11,223.583 1282.5,215.5C 1266.77,214.047 1251.1,214.547 1235.5,217C 1219.62,219.876 1211.12,229.376 1210,245.5C 1209.67,288.167 1209.33,330.833 1209,373.5C 1174.57,374.662 1140.07,374.829 1105.5,374C 1104.5,284.904 1104.17,195.737 1104.5,106.5C 1139.17,106.5 1173.83,106.5 1208.5,106.5C 1208.5,116.167 1208.5,125.833 1208.5,135.5C 1210.18,135.715 1211.18,135.048 1211.5,133.5C 1233.29,112.349 1259.29,102.682 1289.5,104.5C 1289.33,131.169 1289.5,157.835 1290,184.5C 1291.04,183.756 1291.54,182.756 1291.5,181.5C 1310.28,138.566 1342.95,113.066 1389.5,105C 1432.61,97.5485 1471.28,107.215 1505.5,134C 1528.85,155.854 1542.85,182.687 1547.5,214.5 Z M 1402.5,120.5 C 1430.25,118.15 1456.25,123.65 1480.5,137C 1504.45,152.533 1520.12,174.2 1527.5,202C 1502.17,202.667 1476.83,202.667 1451.5,202C 1441.4,182.288 1425.4,174.621 1403.5,179C 1389.78,183.716 1380.28,192.882 1375,206.5C 1367.03,231.554 1368.03,256.221 1378,280.5C 1388.98,299.171 1405.15,306.004 1426.5,301C 1438.04,297.739 1446.04,290.572 1450.5,279.5C 1476.16,278.334 1501.83,278.167 1527.5,279C 1512.64,325.521 1480.97,352.188 1432.5,359C 1400.42,362.652 1370.75,355.986 1343.5,339C 1317.41,319.009 1302.58,292.509 1299,259.5C 1294.27,225.121 1301.27,193.455 1320,164.5C 1341.37,138.284 1368.87,123.617 1402.5,120.5 Z M 1268.5,122.5 C 1269.83,122.5 1271.17,122.5 1272.5,122.5C 1272.5,147.5 1272.5,172.5 1272.5,197.5C 1255.45,196.201 1238.78,198.035 1222.5,203C 1205.34,210.123 1195.51,222.956 1193,241.5C 1192.5,279.832 1192.33,318.165 1192.5,356.5C 1168.83,356.5 1145.17,356.5 1121.5,356.5C 1121.5,278.833 1121.5,201.167 1121.5,123.5C 1145.17,123.5 1168.83,123.5 1192.5,123.5C 1192.33,144.169 1192.5,164.836 1193,185.5C 1202.6,169.561 1214.1,155.061 1227.5,142C 1239.33,131.753 1253,125.253 1268.5,122.5 Z"/></g>
<g><path style="opacity:1" fill="#280862" d="M 539.5,103.5 C 574.409,103.508 602.909,116.841 625,143.5C 653.663,110.944 689.496,98.4436 732.5,106C 780.347,116.474 808.181,145.974 816,194.5C 817.469,254.475 817.969,314.475 817.5,374.5C 782.594,374.829 747.76,374.496 713,373.5C 712.667,322.833 712.333,272.167 712,221.5C 707.692,205.209 697.025,197.209 680,197.5C 662.501,197.353 651.834,205.687 648,222.5C 647.667,272.833 647.333,323.167 647,373.5C 612.24,374.496 577.406,374.829 542.5,374.5C 542.667,324.499 542.5,274.499 542,224.5C 538.992,206.496 528.325,197.496 510,197.5C 493.824,197.033 483.158,204.367 478,219.5C 476.527,271.134 476.027,322.801 476.5,374.5C 441.594,374.829 406.76,374.496 372,373.5C 371.5,284.501 371.333,195.501 371.5,106.5C 406.5,106.5 441.5,106.5 476.5,106.5C 476.17,112.868 476.504,119.202 477.5,125.5C 495.739,111.199 516.405,103.866 539.5,103.5 Z M 630.5,228.5 C 629.501,270.997 629.168,313.663 629.5,356.5C 606.167,356.5 582.833,356.5 559.5,356.5C 559.667,311.499 559.5,266.499 559,221.5C 553.984,194.469 537.651,180.469 510,179.5C 482.262,180.587 465.595,194.587 460,221.5C 459.5,266.499 459.333,311.499 459.5,356.5C 436.167,356.5 412.833,356.5 389.5,356.5C 389.5,278.833 389.5,201.167 389.5,123.5C 412.833,123.5 436.167,123.5 459.5,123.5C 459.333,140.17 459.5,156.837 460,173.5C 466.333,164.833 472.667,156.167 479,147.5C 503.016,124.034 531.516,116.2 564.5,124C 579.658,127.66 592.825,134.826 604,145.5C 611.407,154.645 618.074,164.311 624,174.5C 652.767,126.682 693.933,111.182 747.5,128C 777.146,141.744 794.313,164.911 799,197.5C 800.46,250.477 800.96,303.477 800.5,356.5C 777.167,356.5 753.833,356.5 730.5,356.5C 730.667,312.499 730.5,268.499 730,224.5C 725.685,195.855 709.018,180.855 680,179.5C 649.006,181.328 632.506,197.661 630.5,228.5 Z"/></g>
<g><path style="opacity:1" fill="#75629b" d="M 1208.5,106.5 C 1209.33,115.658 1209.83,124.991 1210,134.5C 1210.38,133.944 1210.88,133.611 1211.5,133.5C 1211.18,135.048 1210.18,135.715 1208.5,135.5C 1208.5,125.833 1208.5,116.167 1208.5,106.5 Z"/></g>
<g><path style="opacity:1" fill="#8f80ae" d="M 1289.5,104.5 C 1290.17,130.167 1290.83,155.833 1291.5,181.5C 1291.54,182.756 1291.04,183.756 1290,184.5C 1289.5,157.835 1289.33,131.169 1289.5,104.5 Z"/></g>
<g><path style="opacity:1" fill="#c7bfd6" d="M 1268.5,122.5 C 1269.92,121.549 1271.59,121.216 1273.5,121.5C 1273.83,147.005 1273.5,172.339 1272.5,197.5C 1272.5,172.5 1272.5,147.5 1272.5,122.5C 1271.17,122.5 1269.83,122.5 1268.5,122.5 Z"/></g>
<g><path style="opacity:1" fill="#290963" d="M 950.5,172.5 C 971.703,169.499 988.537,176.499 1001,193.5C 1005.63,202.997 1007.3,212.997 1006,223.5C 974.24,224.496 942.407,224.829 910.5,224.5C 910.869,205.51 918.536,190.343 933.5,179C 938.895,175.775 944.561,173.608 950.5,172.5 Z M 987.5,206.5 C 968.992,206.83 950.659,206.497 932.5,205.5C 938.301,194.674 947.468,189.34 960,189.5C 970.052,189.361 978.385,193.028 985,200.5C 986.122,202.407 986.955,204.407 987.5,206.5 Z"/></g>
<g><path style="opacity:1" fill="#8e7ead" d="M 932.5,205.5 C 950.659,206.497 968.992,206.83 987.5,206.5C 968.996,207.828 950.329,207.828 931.5,206.5C 931.624,205.893 931.957,205.56 932.5,205.5 Z"/></g>
<g><path style="opacity:1" fill="#574085" d="M 1547.5,214.5 C 1548.45,215.919 1548.78,217.585 1548.5,219.5C 1512,219.832 1475.66,219.498 1439.5,218.5C 1475.5,218.5 1511.5,218.5 1547.5,218.5C 1547.5,217.167 1547.5,215.833 1547.5,214.5 Z"/></g>
<g><path style="opacity:1" fill="#563f85" d="M 1093.5,263.5 C 1093.5,264.5 1093.5,265.5 1093.5,266.5C 1038.83,266.5 984.167,266.5 929.5,266.5C 984.214,266.158 1038.88,265.158 1093.5,263.5 Z"/></g>
<g><path style="opacity:1" fill="#8f7fae" d="M 993.5,287.5 C 1018.99,286.502 1044.66,286.169 1070.5,286.5C 1070.74,287.791 1070.4,288.791 1069.5,289.5C 1044.52,287.509 1019.19,286.843 993.5,287.5 Z"/></g>
<g><path style="opacity:1" fill="#9e91b9" d="M 389.5,123.5 C 389.5,201.167 389.5,278.833 389.5,356.5C 412.833,356.5 436.167,356.5 459.5,356.5C 436.006,357.498 412.339,357.831 388.5,357.5C 388.167,279.332 388.501,201.332 389.5,123.5 Z"/></g>
<g><path style="opacity:1" fill="#a395bc" d="M 630.5,228.5 C 630.5,271.5 630.5,314.5 630.5,357.5C 606.661,357.831 582.994,357.498 559.5,356.5C 582.833,356.5 606.167,356.5 629.5,356.5C 629.168,313.663 629.501,270.997 630.5,228.5 Z"/></g>
<g><path style="opacity:1" fill="#a396bd" d="M 1644.5,228.5 C 1644.5,271.5 1644.5,314.5 1644.5,357.5C 1620.66,357.831 1596.99,357.498 1573.5,356.5C 1596.83,356.5 1620.17,356.5 1643.5,356.5C 1643.17,313.663 1643.5,270.997 1644.5,228.5 Z"/></g>
<g><path style="opacity:1" fill="#21015e" d="M 480.5,396.5 C 508.73,395.889 534.73,403.055 558.5,418C 580.578,434.988 591.911,457.488 592.5,485.5C 563.833,485.5 535.167,485.5 506.5,485.5C 506.265,472.504 499.932,464.337 487.5,461C 467.838,457.717 459.005,465.884 461,485.5C 463.75,491.919 468.25,496.752 474.5,500C 495.182,509.117 516.182,517.45 537.5,525C 595.53,549.422 610.697,589.922 583,646.5C 564.217,670.899 539.384,684.732 508.5,688C 472.731,692.471 439.731,685.138 409.5,666C 386.937,648.86 375.271,626.027 374.5,597.5C 402.833,597.5 431.167,597.5 459.5,597.5C 459.632,612.109 466.632,621.276 480.5,625C 489.041,626.491 497.041,625.158 504.5,621C 513.126,612.413 514.292,602.913 508,592.5C 501.917,587.204 495.084,583.037 487.5,580C 467.346,573.06 447.346,565.727 427.5,558C 380.752,536.324 365.252,500.824 381,451.5C 392.479,426.365 411.645,410.198 438.5,403C 452.418,399.348 466.418,397.181 480.5,396.5 Z"/></g>
<g><path style="opacity:1" fill="#735f9a" d="M 716.5,405.5 C 690.167,405.5 663.833,405.5 637.5,405.5C 637.83,423.674 637.497,441.674 636.5,459.5C 636.5,441.167 636.5,422.833 636.5,404.5C 663.339,404.169 690.005,404.502 716.5,405.5 Z"/></g>
<g><path style="opacity:1" fill="#20015e" d="M 716.5,405.5 C 716.5,423.5 716.5,441.5 716.5,459.5C 730.167,459.5 743.833,459.5 757.5,459.5C 757.5,481.5 757.5,503.5 757.5,525.5C 743.833,525.5 730.167,525.5 716.5,525.5C 716.333,552.169 716.5,578.835 717,605.5C 718.081,613.909 722.914,618.075 731.5,618C 740.494,618.5 749.494,618.666 758.5,618.5C 758.827,641.075 758.494,663.575 757.5,686C 738.104,686.924 718.771,686.258 699.5,684C 663.868,677.619 643.368,656.453 638,620.5C 636.579,588.858 636.079,557.191 636.5,525.5C 627.682,524.507 618.682,524.173 609.5,524.5C 609.5,502.833 609.5,481.167 609.5,459.5C 618.5,459.5 627.5,459.5 636.5,459.5C 637.497,441.674 637.83,423.674 637.5,405.5C 663.833,405.5 690.167,405.5 716.5,405.5 Z"/></g>
<g><path style="opacity:1" fill="#240460" d="M 159.5,429.5 C 159.5,431.833 159.5,434.167 159.5,436.5C 142.167,436.5 124.833,436.5 107.5,436.5C 107.5,433.833 107.5,431.167 107.5,428.5C 108.679,422.489 112.346,418.989 118.5,418C 130.721,415.514 142.721,416.181 154.5,420C 157.892,422.285 159.559,425.452 159.5,429.5 Z"/></g>
<g><path style="opacity:1" fill="#60498b" d="M 107.5,428.5 C 107.5,431.167 107.5,433.833 107.5,436.5C 124.833,436.5 142.167,436.5 159.5,436.5C 159.5,434.167 159.5,431.833 159.5,429.5C 160.473,431.948 160.806,434.615 160.5,437.5C 142.5,437.5 124.5,437.5 106.5,437.5C 106.19,434.287 106.523,431.287 107.5,428.5 Z"/></g>
<g><path style="opacity:1" fill="#6a5492" d="M 199.5,412.5 C 200.492,420.316 200.826,428.316 200.5,436.5C 229.5,436.5 258.5,436.5 287.5,436.5C 287.829,451.343 287.496,466.01 286.5,480.5C 286.5,466.167 286.5,451.833 286.5,437.5C 257.5,437.5 228.5,437.5 199.5,437.5C 199.5,429.167 199.5,420.833 199.5,412.5 Z"/></g>
<g><path style="opacity:1" fill="#21015e" d="M 879.5,456.5 C 918.833,453.552 952.666,465.552 981,492.5C 1000.76,515.552 1010.59,542.386 1010.5,573C 1007.08,639.082 972.749,677.415 907.5,688C 870.975,692.373 838.308,683.373 809.5,661C 781.326,633.49 769.159,599.99 773,560.5C 778.92,507.845 807.42,474.345 858.5,460C 865.642,458.81 872.642,457.643 879.5,456.5 Z M 886.5,525.5 C 912.363,526.191 926.529,539.525 929,565.5C 931.82,584.378 926.32,600.211 912.5,613C 893.639,623.702 876.805,621.202 862,605.5C 851.513,585.159 850.846,564.493 860,543.5C 866.342,533.597 875.175,527.597 886.5,525.5 Z"/></g>
<g><path style="opacity:1" fill="#21015e" d="M 1419.5,588.5 C 1369.83,588.5 1320.17,588.5 1270.5,588.5C 1270.26,589.791 1270.6,590.791 1271.5,591.5C 1275.24,619.717 1290.91,629.883 1318.5,622C 1324.36,618.972 1328.69,614.472 1331.5,608.5C 1359.83,607.5 1388.16,607.167 1416.5,607.5C 1409.5,635.989 1393.5,657.822 1368.5,673C 1337.35,689.455 1304.68,693.122 1270.5,684C 1227.64,670.13 1202.14,640.964 1194,596.5C 1188.5,564.648 1193.5,534.648 1209,506.5C 1232.87,472.399 1265.87,455.732 1308,456.5C 1350.13,455.892 1382.79,472.892 1406,507.5C 1419.82,533.1 1424.32,560.1 1419.5,588.5 Z M 1300.5,519.5 C 1317.13,517.401 1329.63,523.401 1338,537.5C 1339.28,541.414 1340.12,545.414 1340.5,549.5C 1317.49,549.833 1294.49,549.5 1271.5,548.5C 1274.92,532.411 1284.59,522.745 1300.5,519.5 Z"/></g>
<g><path style="opacity:1" fill="#20015e" d="M 1177.5,457.5 C 1180.17,457.5 1182.83,457.5 1185.5,457.5C 1185.5,485.833 1185.5,514.167 1185.5,542.5C 1171.79,542.138 1158.13,542.638 1144.5,544C 1122.93,548.243 1112.43,561.41 1113,583.5C 1112.5,617.832 1112.33,652.165 1112.5,686.5C 1086.17,686.5 1059.83,686.5 1033.5,686.5C 1033.5,610.833 1033.5,535.167 1033.5,459.5C 1059.83,459.5 1086.17,459.5 1112.5,459.5C 1112.33,472.504 1112.5,485.504 1113,498.5C 1128.9,475.81 1150.4,462.143 1177.5,457.5 Z"/></g>
<g><path style="opacity:1" fill="#806da3" d="M 609.5,459.5 C 609.5,481.167 609.5,502.833 609.5,524.5C 618.682,524.173 627.682,524.507 636.5,525.5C 627.167,525.5 617.833,525.5 608.5,525.5C 608.169,503.327 608.503,481.327 609.5,459.5 Z"/></g>
<g><path style="opacity:1" fill="#c6bed5" d="M 1419.5,588.5 C 1369.99,588.835 1320.66,589.835 1271.5,591.5C 1270.6,590.791 1270.26,589.791 1270.5,588.5C 1320.17,588.5 1369.83,588.5 1419.5,588.5 Z"/></g>
<g><path style="opacity:1" fill="#b3a7c7" d="M 66.5,619.5 C 140.167,619.5 213.833,619.5 287.5,619.5C 287.5,633.833 287.5,648.167 287.5,662.5C 213.833,662.5 140.167,662.5 66.5,662.5C 66.5,648.167 66.5,633.833 66.5,619.5 Z M 67.5,620.5 C 67.5,634.167 67.5,647.833 67.5,661.5C 140.5,661.5 213.5,661.5 286.5,661.5C 286.5,647.833 286.5,634.167 286.5,620.5C 213.5,620.5 140.5,620.5 67.5,620.5 Z"/></g>
</svg>
