<?xml version="1.0" encoding="UTF-8"?>
<!DOCTYPE svg PUBLIC "-//W3C//DTD SVG 1.1//EN" "http://www.w3.org/Graphics/SVG/1.1/DTD/svg11.dtd">
<svg xmlns="http://www.w3.org/2000/svg" version="1.1" width="1873px" height="753px" style="shape-rendering:geometricPrecision; text-rendering:geometricPrecision; image-rendering:optimizeQuality; fill-rule:evenodd; clip-rule:evenodd" xmlns:xlink="http://www.w3.org/1999/xlink">
<g><path style="opacity:1" fill="#ff5d5b" d="M 1658.5,43.5 C 1658.17,77.5065 1658.5,111.507 1659.5,145.5C 1660.11,145.376 1660.44,145.043 1660.5,144.5C 1684.76,125.015 1712.43,117.515 1743.5,122C 1781.11,127.602 1806.94,148.102 1821,183.5C 1825.2,195.16 1827.87,207.16 1829,219.5C 1829.5,276.832 1829.67,334.166 1829.5,391.5C 1794.59,391.829 1759.76,391.496 1725,390.5C 1724.67,339.5 1724.33,288.5 1724,237.5C 1718.06,215.604 1703.89,207.104 1681.5,212C 1669.02,216.443 1661.85,225.276 1660,238.5C 1659.67,289.167 1659.33,339.833 1659,390.5C 1624.24,391.496 1589.41,391.829 1554.5,391.5C 1554.5,275.5 1554.5,159.5 1554.5,43.5C 1589.17,43.5 1623.83,43.5 1658.5,43.5 Z M 1641.5,60.5 C 1641.17,105.172 1641.5,149.838 1642.5,194.5C 1643.11,194.376 1643.44,194.043 1643.5,193.5C 1651.4,180.888 1660.4,169.055 1670.5,158C 1694.73,139.82 1721.73,134.153 1751.5,141C 1782.76,150.6 1801.93,171.434 1809,203.5C 1810.43,210.102 1811.43,216.768 1812,223.5C 1812.5,273.499 1812.67,323.499 1812.5,373.5C 1789.17,373.5 1765.83,373.5 1742.5,373.5C 1742.67,329.165 1742.5,284.832 1742,240.5C 1736.71,206.433 1716.87,190.933 1682.5,194C 1655.97,200.719 1642.64,217.886 1642.5,245.5C 1641.5,287.997 1641.17,330.663 1641.5,373.5C 1618.17,373.5 1594.83,373.5 1571.5,373.5C 1571.5,269.167 1571.5,164.833 1571.5,60.5C 1594.83,60.5 1618.17,60.5 1641.5,60.5 Z"/></g>
<g><path style="opacity:1" fill="#ffadad" d="M 1658.5,43.5 C 1659.17,77.1667 1659.83,110.833 1660.5,144.5C 1660.44,145.043 1660.11,145.376 1659.5,145.5C 1658.5,111.507 1658.17,77.5065 1658.5,43.5 Z"/></g>
<g><path style="opacity:1" fill="#ff5858" d="M 28.5,45.5 C 130.833,45.5 233.167,45.5 335.5,45.5C 335.667,266.834 335.5,488.167 335,709.5C 232.904,710.499 130.737,710.832 28.5,710.5C 28.5,488.833 28.5,267.167 28.5,45.5 Z M 167.5,84.5 C 220.718,80.8466 258.885,102.847 282,150.5C 287.104,163.689 289.771,177.356 290,191.5C 290.667,236.167 290.667,280.833 290,325.5C 289.218,337.281 283.385,345.448 272.5,350C 213.545,351.651 154.545,351.984 95.5,351C 82.6669,347.848 75.5002,339.682 74,326.5C 73.3333,279.5 73.3333,232.5 74,185.5C 78.2817,142.568 99.7817,111.735 138.5,93C 148.059,89.3653 157.726,86.5319 167.5,84.5 Z M 197.5,429.5 C 197.5,437.833 197.5,446.167 197.5,454.5C 226.5,454.5 255.5,454.5 284.5,454.5C 284.5,468.833 284.5,483.167 284.5,497.5C 211.5,497.5 138.5,497.5 65.5,497.5C 65.3334,474.831 65.5,452.164 66,429.5C 69.1268,411.369 79.6268,399.869 97.5,395C 124.919,388.315 151.919,389.648 178.5,399C 190.272,405.698 196.605,415.864 197.5,429.5 Z M 190.5,512.5 C 208.503,512.333 226.503,512.5 244.5,513C 268.794,516.96 282.627,531.127 286,555.5C 290.674,592.378 274.84,613.878 238.5,620C 195.145,620.944 151.812,620.611 108.5,619C 78.2128,614.588 63.2128,597.088 63.5,566.5C 62.8673,548.608 69.2006,533.775 82.5,522C 87.1249,518.901 92.1249,516.568 97.5,515C 115.792,513.582 134.125,513.082 152.5,513.5C 152.5,527.833 152.5,542.167 152.5,556.5C 138.496,556.333 124.496,556.5 110.5,557C 103.817,559.626 101.65,564.459 104,571.5C 106.818,575.325 110.652,577.158 115.5,577C 155.833,577.667 196.167,577.667 236.5,577C 246.953,574.373 249.287,568.54 243.5,559.5C 241.615,558.391 239.615,557.557 237.5,557C 221.837,556.5 206.17,556.333 190.5,556.5C 190.5,541.833 190.5,527.167 190.5,512.5 Z M 65.5,637.5 C 138.5,637.5 211.5,637.5 284.5,637.5C 284.5,651.167 284.5,664.833 284.5,678.5C 211.5,678.5 138.5,678.5 65.5,678.5C 65.5,664.833 65.5,651.167 65.5,637.5 Z"/></g>
<g><path style="opacity:1" fill="#fed4d4" d="M 1641.5,60.5 C 1642.17,104.833 1642.83,149.167 1643.5,193.5C 1643.44,194.043 1643.11,194.376 1642.5,194.5C 1641.5,149.838 1641.17,105.172 1641.5,60.5 Z"/></g>
<g><path style="opacity:1" fill="#ff5a5a" d="M 171.5,95.5 C 187.301,94.4478 202.634,96.6145 217.5,102C 222.196,104.01 226.529,106.51 230.5,109.5C 215.666,137.411 192.999,146.911 162.5,138C 149.03,132.363 139.363,122.863 133.5,109.5C 137.471,106.51 141.804,104.01 146.5,102C 154.774,99.0655 163.108,96.8989 171.5,95.5 Z"/></g>
<g><path style="opacity:1" fill="#ff5959" d="M 122.5,115.5 C 140.44,147.794 167.44,159.294 203.5,150C 220.79,143.71 233.29,132.21 241,115.5C 262.724,132.94 275.057,155.607 278,183.5C 278.667,231.833 278.667,280.167 278,328.5C 276.594,333.573 273.428,337.073 268.5,339C 261.556,340.455 254.556,340.788 247.5,340C 246.503,290.238 246.169,240.405 246.5,190.5C 242.833,190.5 239.167,190.5 235.5,190.5C 235.667,240.168 235.5,289.834 235,339.5C 199.906,340.496 164.74,340.829 129.5,340.5C 129.5,290.5 129.5,240.5 129.5,190.5C 125.5,190.5 121.5,190.5 117.5,190.5C 117.5,240.5 117.5,290.5 117.5,340.5C 110.104,340.8 102.771,340.3 95.5,339C 90.5723,337.073 87.4056,333.573 86,328.5C 85.3333,279.167 85.3333,229.833 86,180.5C 89.8856,154.05 102.052,132.384 122.5,115.5 Z"/></g>
<g><path style="opacity:1" fill="#ff5d5b" d="M 1091.5,280.5 C 1036.88,282.158 982.214,283.158 927.5,283.5C 934.486,304.824 948.486,311.324 969.5,303C 974.705,298.6 978.705,293.266 981.5,287C 1017.98,286.008 1054.31,286.341 1090.5,288C 1078.5,343.002 1045.17,377.335 990.5,391C 948.756,399.317 910.089,391.983 874.5,369C 842.73,343.633 825.564,310.467 823,269.5C 819.386,229.361 830.052,193.694 855,162.5C 883.321,133.769 917.821,119.436 958.5,119.5C 999.208,119.335 1033.71,133.669 1062,162.5C 1089.04,197.335 1098.88,236.668 1091.5,280.5 Z M 991.5,304.5 C 1017.19,303.843 1042.52,304.509 1067.5,306.5C 1049.88,347.258 1018.88,370.424 974.5,376C 939.444,379.988 907.778,371.654 879.5,351C 852.242,325.794 838.909,294.461 839.5,257C 838.901,219.552 852.235,188.218 879.5,163C 910.044,141.019 944.044,133.019 981.5,139C 1029.86,147.361 1060.36,175.195 1073,222.5C 1076.04,237.062 1076.87,251.729 1075.5,266.5C 1019.83,266.5 964.167,266.5 908.5,266.5C 908.427,280.306 911.594,293.306 918,305.5C 931.603,321.864 948.77,327.364 969.5,322C 978.991,318.769 986.324,312.936 991.5,304.5 Z M 985.5,223.5 C 966.992,223.83 948.659,223.497 930.5,222.5C 936.301,211.674 945.468,206.34 958,206.5C 968.052,206.361 976.385,210.028 983,217.5C 984.122,219.407 984.955,221.407 985.5,223.5 Z"/></g>
<g><path style="opacity:1" fill="#ff5c5b" d="M 1545.5,231.5 C 1545.5,232.833 1545.5,234.167 1545.5,235.5C 1509.5,235.5 1473.5,235.5 1437.5,235.5C 1435.18,228.043 1431.18,221.543 1425.5,216C 1412.12,209.32 1400.95,211.82 1392,223.5C 1388.79,229.798 1386.79,236.465 1386,243.5C 1384.92,255.947 1385.58,268.28 1388,280.5C 1393.27,299.126 1405.1,305.626 1423.5,300C 1430.92,294.504 1435.59,287.171 1437.5,278C 1473.83,277.5 1510.17,277.333 1546.5,277.5C 1533.81,351.856 1489.81,390.856 1414.5,394.5C 1373.22,394.698 1338.39,380.032 1310,350.5C 1288.16,323.316 1277.66,292.15 1278.5,257C 1278.44,248.75 1279.11,240.583 1280.5,232.5C 1264.77,231.047 1249.1,231.547 1233.5,234C 1223.3,236 1215.8,241.5 1211,250.5C 1209.69,254.42 1208.69,258.42 1208,262.5C 1207.67,305.167 1207.33,347.833 1207,390.5C 1172.57,391.662 1138.07,391.829 1103.5,391C 1102.5,301.904 1102.17,212.737 1102.5,123.5C 1137.17,123.5 1171.83,123.5 1206.5,123.5C 1206.5,133.167 1206.5,142.833 1206.5,152.5C 1208.18,152.715 1209.18,152.048 1209.5,150.5C 1231.29,129.349 1257.29,119.682 1287.5,121.5C 1287.33,148.169 1287.5,174.835 1288,201.5C 1289.04,200.756 1289.54,199.756 1289.5,198.5C 1308.28,155.566 1340.95,130.066 1387.5,122C 1430.03,114.7 1468.36,124.034 1502.5,150C 1526.42,172.007 1540.76,199.174 1545.5,231.5 Z M 1400.5,137.5 C 1428.26,135.15 1454.26,140.65 1478.5,154C 1502.45,169.533 1518.12,191.2 1525.5,219C 1500.17,219.667 1474.83,219.667 1449.5,219C 1439.4,199.288 1423.4,191.621 1401.5,196C 1387.78,200.716 1378.28,209.882 1373,223.5C 1365.06,248.553 1366.06,273.219 1376,297.5C 1386.98,316.171 1403.15,323.004 1424.5,318C 1436.04,314.739 1444.04,307.572 1448.5,296.5C 1474.16,295.334 1499.83,295.167 1525.5,296C 1510.64,342.521 1478.97,369.188 1430.5,376C 1398.42,379.652 1368.75,372.986 1341.5,356C 1315.41,336.009 1300.58,309.509 1297,276.5C 1292.27,242.121 1299.27,210.455 1318,181.5C 1339.43,155.371 1366.93,140.704 1400.5,137.5 Z M 1266.5,139.5 C 1267.83,139.5 1269.17,139.5 1270.5,139.5C 1270.5,164.5 1270.5,189.5 1270.5,214.5C 1253.45,213.201 1236.78,215.035 1220.5,220C 1203.34,227.123 1193.51,239.956 1191,258.5C 1190.5,296.832 1190.33,335.165 1190.5,373.5C 1166.83,373.5 1143.17,373.5 1119.5,373.5C 1119.5,295.833 1119.5,218.167 1119.5,140.5C 1143.17,140.5 1166.83,140.5 1190.5,140.5C 1190.33,161.169 1190.5,181.836 1191,202.5C 1200.6,186.561 1212.1,172.061 1225.5,159C 1237.33,148.753 1251,142.253 1266.5,139.5 Z"/></g>
<g><path style="opacity:1" fill="#ff5d5c" d="M 537.5,120.5 C 572.409,120.508 600.909,133.841 623,160.5C 651.65,127.948 687.484,115.448 730.5,123C 778.347,133.474 806.181,162.974 814,211.5C 815.469,271.475 815.969,331.475 815.5,391.5C 780.594,391.829 745.76,391.496 711,390.5C 710.667,339.833 710.333,289.167 710,238.5C 708.22,228.423 702.72,221.257 693.5,217C 679.064,212.147 665.731,214.147 653.5,223C 649.803,227.898 647.303,233.398 646,239.5C 645.667,289.833 645.333,340.167 645,390.5C 610.24,391.496 575.406,391.829 540.5,391.5C 540.973,339.801 540.473,288.134 539,236.5C 534.358,221.331 524.024,213.998 508,214.5C 491.824,214.033 481.158,221.367 476,236.5C 474.527,288.134 474.027,339.801 474.5,391.5C 439.594,391.829 404.76,391.496 370,390.5C 369.5,301.501 369.333,212.501 369.5,123.5C 404.5,123.5 439.5,123.5 474.5,123.5C 474.17,129.868 474.504,136.202 475.5,142.5C 493.739,128.199 514.405,120.866 537.5,120.5 Z M 628.5,245.5 C 627.501,287.997 627.168,330.663 627.5,373.5C 604.167,373.5 580.833,373.5 557.5,373.5C 557.667,328.165 557.5,282.832 557,237.5C 551.398,211.177 535.065,197.511 508,196.5C 482.892,196.86 466.559,208.86 459,232.5C 457.53,279.467 457.03,326.467 457.5,373.5C 434.167,373.5 410.833,373.5 387.5,373.5C 387.5,295.833 387.5,218.167 387.5,140.5C 410.833,140.5 434.167,140.5 457.5,140.5C 457.333,157.17 457.5,173.837 458,190.5C 464.333,181.833 470.667,173.167 477,164.5C 501.016,141.034 529.516,133.2 562.5,141C 577.658,144.66 590.825,151.826 602,162.5C 609.407,171.645 616.074,181.311 622,191.5C 650.761,143.684 691.928,128.184 745.5,145C 775.146,158.744 792.313,181.911 797,214.5C 798.46,267.477 798.96,320.477 798.5,373.5C 775.167,373.5 751.833,373.5 728.5,373.5C 728.667,329.499 728.5,285.499 728,241.5C 723.685,212.855 707.018,197.855 678,196.5C 647.006,198.328 630.506,214.661 628.5,245.5 Z"/></g>
<g><path style="opacity:1" fill="#ffabab" d="M 1287.5,121.5 C 1288.17,147.167 1288.83,172.833 1289.5,198.5C 1289.54,199.756 1289.04,200.756 1288,201.5C 1287.5,174.835 1287.33,148.169 1287.5,121.5 Z"/></g>
<g><path style="opacity:1" fill="#ff9897" d="M 1206.5,123.5 C 1207.33,132.658 1207.83,141.991 1208,151.5C 1208.38,150.944 1208.88,150.611 1209.5,150.5C 1209.18,152.048 1208.18,152.715 1206.5,152.5C 1206.5,142.833 1206.5,133.167 1206.5,123.5 Z"/></g>
<g><path style="opacity:1" fill="#ffd4d4" d="M 1266.5,139.5 C 1267.92,138.549 1269.59,138.216 1271.5,138.5C 1271.83,164.005 1271.5,189.339 1270.5,214.5C 1270.5,189.5 1270.5,164.5 1270.5,139.5C 1269.17,139.5 1267.83,139.5 1266.5,139.5 Z"/></g>
<g><path style="opacity:1" fill="#ff5e5d" d="M 948.5,189.5 C 969.703,186.499 986.537,193.499 999,210.5C 1003.63,219.997 1005.3,229.997 1004,240.5C 972.24,241.496 940.407,241.829 908.5,241.5C 908.869,222.51 916.536,207.343 931.5,196C 936.895,192.775 942.561,190.608 948.5,189.5 Z M 985.5,223.5 C 966.992,223.83 948.659,223.497 930.5,222.5C 936.301,211.674 945.468,206.34 958,206.5C 968.052,206.361 976.385,210.028 983,217.5C 984.122,219.407 984.955,221.407 985.5,223.5 Z"/></g>
<g><path style="opacity:1" fill="#ffaaaa" d="M 930.5,222.5 C 948.659,223.497 966.992,223.83 985.5,223.5C 966.996,224.828 948.329,224.828 929.5,223.5C 929.624,222.893 929.957,222.56 930.5,222.5 Z"/></g>
<g><path style="opacity:1" fill="#ff8281" d="M 1545.5,231.5 C 1546.45,232.919 1546.78,234.585 1546.5,236.5C 1510,236.832 1473.66,236.498 1437.5,235.5C 1473.5,235.5 1509.5,235.5 1545.5,235.5C 1545.5,234.167 1545.5,232.833 1545.5,231.5 Z"/></g>
<g><path style="opacity:1" fill="#ff8181" d="M 1091.5,280.5 C 1091.5,281.5 1091.5,282.5 1091.5,283.5C 1036.83,283.5 982.167,283.5 927.5,283.5C 982.214,283.158 1036.88,282.158 1091.5,280.5 Z"/></g>
<g><path style="opacity:1" fill="#ffabab" d="M 991.5,304.5 C 1016.99,303.502 1042.66,303.169 1068.5,303.5C 1068.74,304.791 1068.4,305.791 1067.5,306.5C 1042.52,304.509 1017.19,303.843 991.5,304.5 Z"/></g>
<g><path style="opacity:1" fill="#ffb7b6" d="M 387.5,140.5 C 387.5,218.167 387.5,295.833 387.5,373.5C 410.833,373.5 434.167,373.5 457.5,373.5C 434.006,374.498 410.339,374.831 386.5,374.5C 386.167,296.332 386.501,218.332 387.5,140.5 Z"/></g>
<g><path style="opacity:1" fill="#ffbab9" d="M 628.5,245.5 C 628.5,288.5 628.5,331.5 628.5,374.5C 604.661,374.831 580.994,374.498 557.5,373.5C 580.833,373.5 604.167,373.5 627.5,373.5C 627.168,330.663 627.501,287.997 628.5,245.5 Z"/></g>
<g><path style="opacity:1" fill="#ffbbba" d="M 1642.5,245.5 C 1642.5,288.5 1642.5,331.5 1642.5,374.5C 1618.66,374.831 1594.99,374.498 1571.5,373.5C 1594.83,373.5 1618.17,373.5 1641.5,373.5C 1641.17,330.663 1641.5,287.997 1642.5,245.5 Z"/></g>
<g><path style="opacity:1" fill="#ff5858" d="M 478.5,413.5 C 508.643,412.697 535.976,420.863 560.5,438C 580.074,454.984 590.074,476.484 590.5,502.5C 561.833,502.5 533.167,502.5 504.5,502.5C 504.265,489.504 497.932,481.337 485.5,478C 465.838,474.717 457.005,482.884 459,502.5C 461.75,508.919 466.25,513.752 472.5,517C 493.182,526.117 514.182,534.45 535.5,542C 593.534,566.433 608.7,606.933 581,663.5C 562.217,687.899 537.384,701.732 506.5,705C 470.731,709.471 437.731,702.138 407.5,683C 384.937,665.86 373.271,643.027 372.5,614.5C 400.833,614.5 429.167,614.5 457.5,614.5C 457.632,629.109 464.632,638.276 478.5,642C 487.041,643.491 495.041,642.158 502.5,638C 511.126,629.413 512.292,619.913 506,609.5C 499.917,604.204 493.084,600.037 485.5,597C 465.346,590.06 445.346,582.727 425.5,575C 378.752,553.324 363.252,517.824 379,468.5C 390.479,443.365 409.645,427.198 436.5,420C 450.418,416.348 464.418,414.181 478.5,413.5 Z"/></g>
<g><path style="opacity:1" fill="#ff8484" d="M 714.5,476.5 C 713.503,458.674 713.17,440.674 713.5,422.5C 687.5,422.5 661.5,422.5 635.5,422.5C 635.83,440.674 635.497,458.674 634.5,476.5C 634.5,458.167 634.5,439.833 634.5,421.5C 661.167,421.5 687.833,421.5 714.5,421.5C 714.5,439.833 714.5,458.167 714.5,476.5 Z"/></g>
<g><path style="opacity:1" fill="#ff5858" d="M 714.5,476.5 C 728.167,476.5 741.833,476.5 755.5,476.5C 755.5,498.5 755.5,520.5 755.5,542.5C 741.833,542.5 728.167,542.5 714.5,542.5C 714.333,569.169 714.5,595.835 715,622.5C 716.081,630.909 720.914,635.075 729.5,635C 738.494,635.5 747.494,635.666 756.5,635.5C 756.827,658.075 756.494,680.575 755.5,703C 736.103,703.953 716.769,703.287 697.5,701C 661.868,694.619 641.368,673.453 636,637.5C 634.579,605.858 634.079,574.191 634.5,542.5C 625.682,541.507 616.682,541.173 607.5,541.5C 607.5,519.833 607.5,498.167 607.5,476.5C 616.5,476.5 625.5,476.5 634.5,476.5C 635.497,458.674 635.83,440.674 635.5,422.5C 661.5,422.5 687.5,422.5 713.5,422.5C 713.17,440.674 713.503,458.674 714.5,476.5 Z"/></g>
<g><path style="opacity:1" fill="#ff5b5a" d="M 157.5,446.5 C 157.5,448.833 157.5,451.167 157.5,453.5C 140.167,453.5 122.833,453.5 105.5,453.5C 105.5,450.833 105.5,448.167 105.5,445.5C 106.07,441.088 108.403,437.922 112.5,436C 125.975,432.382 139.308,432.716 152.5,437C 155.892,439.285 157.559,442.452 157.5,446.5 Z"/></g>
<g><path style="opacity:1" fill="#ff8888" d="M 105.5,445.5 C 105.5,448.167 105.5,450.833 105.5,453.5C 122.833,453.5 140.167,453.5 157.5,453.5C 157.5,451.167 157.5,448.833 157.5,446.5C 158.473,448.948 158.806,451.615 158.5,454.5C 140.5,454.5 122.5,454.5 104.5,454.5C 104.19,451.287 104.523,448.287 105.5,445.5 Z"/></g>
<g><path style="opacity:1" fill="#ff8f8e" d="M 197.5,429.5 C 198.492,437.316 198.826,445.316 198.5,453.5C 227.5,453.5 256.5,453.5 285.5,453.5C 285.829,468.343 285.496,483.01 284.5,497.5C 284.5,483.167 284.5,468.833 284.5,454.5C 255.5,454.5 226.5,454.5 197.5,454.5C 197.5,446.167 197.5,437.833 197.5,429.5 Z"/></g>
<g><path style="opacity:1" fill="#ff5858" d="M 877.5,473.5 C 916.833,470.552 950.666,482.552 979,509.5C 998.611,532.42 1008.44,559.086 1008.5,589.5C 1005.32,655.845 970.985,694.345 905.5,705C 868.975,709.373 836.308,700.373 807.5,678C 779.337,650.525 767.17,617.025 771,577.5C 776.92,524.845 805.42,491.345 856.5,477C 863.634,475.77 870.634,474.603 877.5,473.5 Z M 884.5,542.5 C 910.363,543.191 924.529,556.525 927,582.5C 929.82,601.378 924.32,617.211 910.5,630C 891.639,640.702 874.805,638.202 860,622.5C 848.675,600.779 848.675,579.112 860,557.5C 866.349,549.277 874.515,544.277 884.5,542.5 Z"/></g>
<g><path style="opacity:1" fill="#ff5858" d="M 1417.5,605.5 C 1367.83,605.5 1318.17,605.5 1268.5,605.5C 1268.26,606.791 1268.6,607.791 1269.5,608.5C 1273.24,636.717 1288.91,646.883 1316.5,639C 1322.36,635.972 1326.69,631.472 1329.5,625.5C 1357.83,624.5 1386.16,624.167 1414.5,624.5C 1404.5,662 1381.16,687.167 1344.5,700C 1305.5,711.497 1268.83,706.497 1234.5,685C 1203.94,660.523 1189.27,628.523 1190.5,589C 1190.04,536.199 1214.04,499.866 1262.5,480C 1303.25,467.552 1341.59,472.552 1377.5,495C 1406.35,518.709 1420.35,549.376 1419.5,587C 1419.71,593.414 1419.04,599.581 1417.5,605.5 Z M 1298.5,536.5 C 1309.97,535.488 1320.3,538.321 1329.5,545C 1335.32,550.95 1338.32,558.116 1338.5,566.5C 1315.49,566.833 1292.49,566.5 1269.5,565.5C 1272.92,549.411 1282.59,539.745 1298.5,536.5 Z"/></g>
<g><path style="opacity:1" fill="#ff5858" d="M 1175.5,474.5 C 1178.17,474.5 1180.83,474.5 1183.5,474.5C 1183.5,502.833 1183.5,531.167 1183.5,559.5C 1169.8,559.163 1156.13,559.663 1142.5,561C 1120.93,565.243 1110.43,578.41 1111,600.5C 1110.5,634.832 1110.33,669.165 1110.5,703.5C 1084.17,703.5 1057.83,703.5 1031.5,703.5C 1031.5,627.833 1031.5,552.167 1031.5,476.5C 1057.83,476.5 1084.17,476.5 1110.5,476.5C 1110.33,489.504 1110.5,502.504 1111,515.5C 1126.9,492.81 1148.4,479.143 1175.5,474.5 Z"/></g>
<g><path style="opacity:1" fill="#ffa19f" d="M 607.5,476.5 C 607.5,498.167 607.5,519.833 607.5,541.5C 616.682,541.173 625.682,541.507 634.5,542.5C 625.167,542.5 615.833,542.5 606.5,542.5C 606.169,520.327 606.503,498.327 607.5,476.5 Z"/></g>
<g><path style="opacity:1" fill="#ffd4d4" d="M 1417.5,605.5 C 1367.99,605.835 1318.66,606.835 1269.5,608.5C 1268.6,607.791 1268.26,606.791 1268.5,605.5C 1318.17,605.5 1367.83,605.5 1417.5,605.5 Z"/></g>
<g><path style="opacity:1" fill="#ffc4c4" d="M 64.5,636.5 C 138.167,636.5 211.833,636.5 285.5,636.5C 285.5,650.833 285.5,665.167 285.5,679.5C 211.833,679.5 138.167,679.5 64.5,679.5C 64.5,665.167 64.5,650.833 64.5,636.5 Z M 65.5,637.5 C 65.5,651.167 65.5,664.833 65.5,678.5C 138.5,678.5 211.5,678.5 284.5,678.5C 284.5,664.833 284.5,651.167 284.5,637.5C 211.5,637.5 138.5,637.5 65.5,637.5 Z"/></g>
</svg>
